<?xml version="1.0" encoding="UTF-8"?>
<svg width="67px" height="67px" viewBox="0 0 67 67" version="1.1" xmlns="http://www.w3.org/2000/svg" xmlns:xlink="http://www.w3.org/1999/xlink">
    <!-- Generator: Sketch 51.3 (57544) - http://www.bohemiancoding.com/sketch -->
    <title>slack</title>
    <desc>Created with Sketch.</desc>
    <defs></defs>
    <g id="Page-1" stroke="none" stroke-width="1" fill="none" fill-rule="evenodd">
        <g id="1280px" transform="translate(-377.000000, -2022.000000)" fill-rule="nonzero">
            <g id="slack" transform="translate(377.000000, 2022.000000)">
                <path d="M43.499616,4.10862712 C42.4948284,0.98857269 39.170346,-0.721617573 36.0732847,0.291982998 C32.9762234,1.30558357 31.2850377,4.65922496 32.2898253,7.78345059 L47.5270362,55.0806393 C48.573173,57.9963052 51.6950439,59.6355851 54.6970019,58.7679764 C57.8230077,57.8586557 59.7333446,54.5091855 58.7326919,51.4099871 C58.6954775,51.2890224 43.499616,4.10862712 43.499616,4.10862712 Z" id="Shape" fill="#FFC107"></path>
                <path d="M19.5002981,12.1107489 C18.4914199,8.98640659 15.1670839,7.27615247 12.0742936,8.29396224 C8.98150331,9.31177201 7.28212255,12.6613673 8.29100066,15.7857096 L23.527541,63.080493 C24.5736318,65.9962677 27.6953654,67.6356088 30.6971912,66.7679677 C33.8230595,65.8586131 35.7333123,62.5090178 34.7327037,59.4097037 C34.6954909,59.2929058 19.5002981,12.1107489 19.5002981,12.1107489 Z" id="Shape" fill="#4CAF50"></path>
                <path d="M62.8910153,43.4978551 C66.0152206,42.4932214 67.7212285,39.1692481 66.7076346,36.072661 C65.6940406,32.9760739 62.340421,31.2851472 59.2162158,32.2897809 L11.9193351,47.5287929 C9.0036883,48.5747696 7.36441904,51.6961624 8.23202211,54.6976607 C9.14133686,57.8231879 12.4907852,59.7332323 15.5899635,58.7327328 C15.7109274,58.6913899 62.8910153,43.4978551 62.8910153,43.4978551 Z" id="Shape" fill="#EC407A"></path>
                <path d="M21.6800334,57 C24.7627402,55.9974937 28.7351713,54.7067669 33,53.3199666 C31.9974937,50.2372598 30.7067669,46.2648287 29.3199666,42 L18,45.6800334 L21.6800334,57 Z" id="Shape" fill="#472A49"></path>
                <path d="M45.6800334,49 C49.9615706,47.6094098 53.9381788,46.3190423 57,45.3209911 C55.9974937,42.2391425 54.7067669,38.2636414 53.3199666,34 L42,37.6790089 L45.6800334,49 Z" id="Shape" fill="#CC2027"></path>
                <path d="M54.8908542,19.5002581 C58.015182,18.4954144 59.7212568,15.1707464 58.7076231,12.0735121 C57.6939894,8.9762779 54.3402384,7.28499778 51.2159106,8.28984147 L3.92134694,23.5279031 C1.00141445,24.5740984 -0.63791908,27.6961436 0.233889334,30.6982692 C1.14323974,33.8244495 4.49281944,35.7307579 7.59211921,34.7341846 C7.70891651,34.6969681 54.8908542,19.5002581 54.8908542,19.5002581 Z" id="Shape" fill="#2196F3"></path>
                <path d="M14.6758563,33 C17.7585631,31.9974937 21.7351713,30.7067669 26,29.3199666 C24.6090226,25.0426065 23.3182957,21.0659983 22.3199666,18 L11,21.6800334 L14.6758563,33 Z" id="Shape" fill="#1A937D"></path>
                <path d="M37.6790089,26 C41.9593541,24.6094098 45.9348552,23.3190423 49,22.3209911 C47.6094098,18.0406459 46.3148664,14.0651448 45.3209911,11 L34,14.6790089 L37.6790089,26 Z" id="Shape" fill="#65863A"></path>
            </g>
        </g>
    </g>
</svg>